<svg xmlns="http://www.w3.org/2000/svg" viewBox="0 0 800 600" role="img" aria-label="Diagram: a legacy monolith migrated to pods across a Kubernetes cluster, deployed by Argo CD from Git">
  <defs>
    <linearGradient id="bg" x1="0" y1="0" x2="1" y2="1">
      <stop offset="0" stop-color="#0b0d10"/><stop offset="1" stop-color="#12151a"/>
    </linearGradient>
    <radialGradient id="glow" cx="0.5" cy="0.45" r="0.55">
      <stop offset="0" stop-color="#10b981" stop-opacity="0.13"/><stop offset="1" stop-color="#10b981" stop-opacity="0"/>
    </radialGradient>
    <pattern id="dots" width="24" height="24" patternUnits="userSpaceOnUse">
      <circle cx="1" cy="1" r="1" fill="#ffffff" fill-opacity="0.05"/>
    </pattern>
    <marker id="arr" viewBox="0 0 10 10" refX="8" refY="5" markerWidth="7" markerHeight="7" orient="auto-start-reverse">
      <path d="M0 0 L10 5 L0 10 z" fill="#34d399"/>
    </marker>
    <marker id="arrm" viewBox="0 0 10 10" refX="8" refY="5" markerWidth="7" markerHeight="7" orient="auto-start-reverse">
      <path d="M0 0 L10 5 L0 10 z" fill="#71717a"/>
    </marker>
  </defs>
  <rect width="800" height="600" fill="url(#bg)"/>
  <rect width="800" height="600" fill="url(#dots)"/>
  <rect width="800" height="600" fill="url(#glow)"/>
  <g transform="translate(0 24)">
  <text x="150" y="150" font-family="'JetBrains Mono', ui-monospace, SFMono-Regular, Menlo, monospace" font-size="13" font-weight="600" fill="#71717a" text-anchor="middle" letter-spacing="2">BEFORE</text>
  <rect x="60" y="168" width="180" height="250" rx="14" fill="#161a20" stroke="#2a3038" stroke-width="1"/>
  <text x="150" y="198" font-family="'JetBrains Mono', ui-monospace, SFMono-Regular, Menlo, monospace" font-size="15" font-weight="600" fill="#a1a1aa" text-anchor="middle">legacy VM</text>
  <rect x="80" y="216" width="140" height="34" rx="6" fill="#20252c" stroke="#2f353e" stroke-width="1"/>
  <text x="150" y="238" font-family="Inter, ui-sans-serif, system-ui, -apple-system, 'Segoe UI', sans-serif" font-size="15" font-weight="500" fill="#a1a1aa" text-anchor="middle">UI</text>
  <rect x="80" y="258" width="140" height="34" rx="6" fill="#20252c" stroke="#2f353e" stroke-width="1"/>
  <text x="150" y="280" font-family="Inter, ui-sans-serif, system-ui, -apple-system, 'Segoe UI', sans-serif" font-size="15" font-weight="500" fill="#a1a1aa" text-anchor="middle">API</text>
  <rect x="80" y="300" width="140" height="34" rx="6" fill="#20252c" stroke="#2f353e" stroke-width="1"/>
  <text x="150" y="322" font-family="Inter, ui-sans-serif, system-ui, -apple-system, 'Segoe UI', sans-serif" font-size="15" font-weight="500" fill="#a1a1aa" text-anchor="middle">Jobs</text>
  <rect x="80" y="342" width="140" height="34" rx="6" fill="#20252c" stroke="#2f353e" stroke-width="1"/>
  <text x="150" y="364" font-family="Inter, ui-sans-serif, system-ui, -apple-system, 'Segoe UI', sans-serif" font-size="15" font-weight="500" fill="#a1a1aa" text-anchor="middle">Reports</text>
  <text x="150" y="450" font-family="Inter, ui-sans-serif, system-ui, -apple-system, 'Segoe UI', sans-serif" font-size="15" font-weight="500" fill="#71717a" text-anchor="middle">1 monolith</text>
  <text x="150" y="472" font-family="Inter, ui-sans-serif, system-ui, -apple-system, 'Segoe UI', sans-serif" font-size="15" font-weight="500" fill="#71717a" text-anchor="middle">manual deploys</text>
  <line x1="252" y1="293" x2="318" y2="293" stroke="#34d399" stroke-width="2.5" marker-end="url(#arr)"/>
  <text x="285" y="280" font-family="'JetBrains Mono', ui-monospace, SFMono-Regular, Menlo, monospace" font-size="13" font-weight="600" fill="#34d399" text-anchor="middle">migrate</text>
  <text x="540" y="80" font-family="'JetBrains Mono', ui-monospace, SFMono-Regular, Menlo, monospace" font-size="13" font-weight="600" fill="#34d399" text-anchor="middle" letter-spacing="2">AFTER</text>
  <rect x="355" y="98" width="110" height="34" rx="17.0" fill="#38bdf8" fill-opacity="0.12" stroke="#38bdf8" stroke-width="1"/>
  <rect x="355" y="98" width="110" height="34" rx="17.0" fill="none" stroke="#38bdf8" stroke-opacity="0.45"/>
  <text x="410.0" y="120.4" font-family="'JetBrains Mono', ui-monospace, SFMono-Regular, Menlo, monospace" font-size="15" font-weight="600" fill="#38bdf8" text-anchor="middle">git repo</text>
  <line x1="470" y1="115" x2="548" y2="115" stroke="#34d399" stroke-width="2" marker-end="url(#arr)"/>
  <text x="509" y="106" font-family="'JetBrains Mono', ui-monospace, SFMono-Regular, Menlo, monospace" font-size="12" font-weight="500" fill="#71717a" text-anchor="middle">sync</text>
  <rect x="553" y="98" width="110" height="34" rx="17.0" fill="#34d399" fill-opacity="0.12" stroke="#34d399" stroke-width="1"/>
  <rect x="553" y="98" width="110" height="34" rx="17.0" fill="none" stroke="#34d399" stroke-opacity="0.45"/>
  <text x="608.0" y="120.4" font-family="'JetBrains Mono', ui-monospace, SFMono-Regular, Menlo, monospace" font-size="15" font-weight="600" fill="#34d399" text-anchor="middle">Argo CD</text>
  <line x1="608" y1="136" x2="608" y2="168" stroke="#34d399" stroke-width="2" marker-end="url(#arr)"/>
  <rect x="330" y="172" width="420" height="300" rx="16" fill="#10b981" fill-opacity="0.04" stroke="#34d399" stroke-width="1.5" stroke-dasharray="6 5"/>
  <text x="350" y="200" font-family="'JetBrains Mono', ui-monospace, SFMono-Regular, Menlo, monospace" font-size="15" font-weight="600" fill="#34d399" text-anchor="start">kubernetes cluster</text>
  <rect x="350" y="216" width="118" height="236" rx="10" fill="#161a20" stroke="#2a3038" stroke-width="1"/>
  <text x="409" y="240" font-family="'JetBrains Mono', ui-monospace, SFMono-Regular, Menlo, monospace" font-size="14" font-weight="600" fill="#a1a1aa" text-anchor="middle">node-1</text>
  <rect x="362" y="256" width="94" height="48" rx="8" fill="#34d399" fill-opacity="0.12" stroke="#34d399" stroke-width="1"/>
  <rect x="362" y="256" width="94" height="48" rx="8" fill="none" stroke="#34d399" stroke-opacity="0.5"/>
  <circle cx="378" cy="280" r="5" fill="#34d399"/>
  <text x="390" y="285" font-family="Inter, ui-sans-serif, system-ui, -apple-system, 'Segoe UI', sans-serif" font-size="15" font-weight="600" fill="#e4e4e7" text-anchor="start">web</text>
  <rect x="362" y="318" width="94" height="48" rx="8" fill="#34d399" fill-opacity="0.12" stroke="#34d399" stroke-width="1"/>
  <rect x="362" y="318" width="94" height="48" rx="8" fill="none" stroke="#34d399" stroke-opacity="0.5"/>
  <circle cx="378" cy="342" r="5" fill="#34d399"/>
  <text x="390" y="347" font-family="Inter, ui-sans-serif, system-ui, -apple-system, 'Segoe UI', sans-serif" font-size="15" font-weight="600" fill="#e4e4e7" text-anchor="start">web</text>
  <rect x="362" y="380" width="94" height="48" rx="8" fill="#34d399" fill-opacity="0.12" stroke="#34d399" stroke-width="1"/>
  <rect x="362" y="380" width="94" height="48" rx="8" fill="none" stroke="#34d399" stroke-opacity="0.5"/>
  <circle cx="378" cy="404" r="5" fill="#34d399"/>
  <text x="390" y="409" font-family="Inter, ui-sans-serif, system-ui, -apple-system, 'Segoe UI', sans-serif" font-size="15" font-weight="600" fill="#e4e4e7" text-anchor="start">api</text>
  <rect x="482" y="216" width="118" height="236" rx="10" fill="#161a20" stroke="#2a3038" stroke-width="1"/>
  <text x="541" y="240" font-family="'JetBrains Mono', ui-monospace, SFMono-Regular, Menlo, monospace" font-size="14" font-weight="600" fill="#a1a1aa" text-anchor="middle">node-2</text>
  <rect x="494" y="256" width="94" height="48" rx="8" fill="#34d399" fill-opacity="0.12" stroke="#34d399" stroke-width="1"/>
  <rect x="494" y="256" width="94" height="48" rx="8" fill="none" stroke="#34d399" stroke-opacity="0.5"/>
  <circle cx="510" cy="280" r="5" fill="#34d399"/>
  <text x="522" y="285" font-family="Inter, ui-sans-serif, system-ui, -apple-system, 'Segoe UI', sans-serif" font-size="15" font-weight="600" fill="#e4e4e7" text-anchor="start">api</text>
  <rect x="494" y="318" width="94" height="48" rx="8" fill="#38bdf8" fill-opacity="0.12" stroke="#38bdf8" stroke-width="1"/>
  <rect x="494" y="318" width="94" height="48" rx="8" fill="none" stroke="#38bdf8" stroke-opacity="0.5"/>
  <circle cx="510" cy="342" r="5" fill="#38bdf8"/>
  <text x="522" y="347" font-family="Inter, ui-sans-serif, system-ui, -apple-system, 'Segoe UI', sans-serif" font-size="15" font-weight="600" fill="#e4e4e7" text-anchor="start">worker</text>
  <rect x="494" y="380" width="94" height="48" rx="8" fill="#34d399" fill-opacity="0.12" stroke="#34d399" stroke-width="1"/>
  <rect x="494" y="380" width="94" height="48" rx="8" fill="none" stroke="#34d399" stroke-opacity="0.5"/>
  <circle cx="510" cy="404" r="5" fill="#34d399"/>
  <text x="522" y="409" font-family="Inter, ui-sans-serif, system-ui, -apple-system, 'Segoe UI', sans-serif" font-size="15" font-weight="600" fill="#e4e4e7" text-anchor="start">web</text>
  <rect x="614" y="216" width="118" height="236" rx="10" fill="#161a20" stroke="#2a3038" stroke-width="1"/>
  <text x="673" y="240" font-family="'JetBrains Mono', ui-monospace, SFMono-Regular, Menlo, monospace" font-size="14" font-weight="600" fill="#a1a1aa" text-anchor="middle">node-3</text>
  <rect x="626" y="256" width="94" height="48" rx="8" fill="#38bdf8" fill-opacity="0.12" stroke="#38bdf8" stroke-width="1"/>
  <rect x="626" y="256" width="94" height="48" rx="8" fill="none" stroke="#38bdf8" stroke-opacity="0.5"/>
  <circle cx="642" cy="280" r="5" fill="#38bdf8"/>
  <text x="654" y="285" font-family="Inter, ui-sans-serif, system-ui, -apple-system, 'Segoe UI', sans-serif" font-size="15" font-weight="600" fill="#e4e4e7" text-anchor="start">worker</text>
  <rect x="626" y="318" width="94" height="48" rx="8" fill="#38bdf8" fill-opacity="0.12" stroke="#38bdf8" stroke-width="1"/>
  <rect x="626" y="318" width="94" height="48" rx="8" fill="none" stroke="#38bdf8" stroke-opacity="0.5"/>
  <circle cx="642" cy="342" r="5" fill="#38bdf8"/>
  <text x="654" y="347" font-family="Inter, ui-sans-serif, system-ui, -apple-system, 'Segoe UI', sans-serif" font-size="15" font-weight="600" fill="#e4e4e7" text-anchor="start">cache</text>
  <rect x="626" y="380" width="94" height="48" rx="8" fill="#34d399" fill-opacity="0.12" stroke="#34d399" stroke-width="1"/>
  <rect x="626" y="380" width="94" height="48" rx="8" fill="none" stroke="#34d399" stroke-opacity="0.5"/>
  <circle cx="642" cy="404" r="5" fill="#34d399"/>
  <text x="654" y="409" font-family="Inter, ui-sans-serif, system-ui, -apple-system, 'Segoe UI', sans-serif" font-size="15" font-weight="600" fill="#e4e4e7" text-anchor="start">api</text>
  </g>
  <text x="400" y="540" font-family="'JetBrains Mono', ui-monospace, SFMono-Regular, Menlo, monospace" font-size="15" font-weight="500" fill="#34d399" text-anchor="middle" letter-spacing="0.5">100+ apps  ·  GitOps  ·  40% faster deploys</text>
</svg>
